<svg xmlns="http://www.w3.org/2000/svg" xmlns:xlink="http://www.w3.org/1999/xlink" data-name="Layer 1" viewBox="0 0 16 16"><defs><clipPath id="f"><rect width="16" height="16" fill="none"/></clipPath><linearGradient id="g" x1="-70.75" x2="-70.75" y1="-28.825" y2="-27.949" gradientTransform="matrix(16 0 0 -16 1140 -446)" gradientUnits="userSpaceOnUse"><stop offset="0" stop-color="#f28a2d"/><stop offset="1" stop-color="#fde86f"/></linearGradient><radialGradient id="h" cx="-70.75" cy="-28.375" r=".5" gradientTransform="matrix(16 0 0 -16 1140 -446)" gradientUnits="userSpaceOnUse"><stop offset="0" stop-color="#f28a2d" stop-opacity="0"/><stop offset="1" stop-color="#f08423" stop-opacity=".34"/></radialGradient><radialGradient id="a" cx="-69.972" cy="-26.579" r=".101" gradientTransform="matrix(14.5998 6.5456 5.063 -11.2928 1157.88 166.179)" gradientUnits="userSpaceOnUse"><stop offset="0" stop-color="#f28a2d" stop-opacity=".5"/><stop offset="1" stop-color="#f28a2d" stop-opacity="0"/></radialGradient><radialGradient id="i" cx="-73.926" cy="-41.183" r=".283" gradientTransform="matrix(12.5663 -9.904 -3.6032 -4.5717 792.459 -908.666)" xlink:href="#a"/><radialGradient id="j" cx="-71.706" cy="-47.589" r=".107" gradientTransform="matrix(15.7394 -2.8762 -.572 -3.1299 1106.478 -353.161)" gradientUnits="userSpaceOnUse"><stop offset="0" stop-color="#d45f00" stop-opacity=".15"/><stop offset="1" stop-color="#f28a2d" stop-opacity="0"/></radialGradient><radialGradient id="k" cx="-69.891" cy="-38.45" r=".106" gradientTransform="matrix(15.6768 3.1995 .6363 -3.1176 1131.012 105.891)" gradientUnits="userSpaceOnUse"><stop offset="0" stop-color="#d45f00" stop-opacity=".15"/><stop offset="1" stop-color="#d45f00" stop-opacity="0"/></radialGradient><linearGradient id="l" x1="-53.17" x2="-53.17" y1="-89.74" y2="-91.259" gradientTransform="matrix(3.4035 0 0 -.9374 188.965 -78.813)" gradientUnits="userSpaceOnUse"><stop offset="0" stop-color="#482314"/><stop offset="1" stop-color="#9a4111"/></linearGradient><radialGradient id="b" cx="-104.565" cy="-60.305" r=".872" gradientTransform="matrix(0 -2.1326 -2.1327 0 -123.62 -218.726)" gradientUnits="userSpaceOnUse"><stop offset="0" stop-color="#3b446b"/><stop offset=".688" stop-color="#202340"/></radialGradient><radialGradient id="m" cx="-104.58" cy="-60.305" r=".872" gradientTransform="matrix(0 -2.1326 -2.1327 0 -117.606 -218.757)" xlink:href="#b"/><radialGradient id="c" cx="-133.564" cy="-33.648" r=".298" gradientTransform="matrix(-.339 -1.3177 -6.1081 1.5713 -245.8 -121.416)" gradientUnits="userSpaceOnUse"><stop offset="0" stop-color="#e38200"/><stop offset="1" stop-color="#cd6700"/></radialGradient><radialGradient id="n" cx="-109.665" cy="-34.995" r=".314" gradientTransform="matrix(.2577 -1.3359 -7.9278 -1.5293 -238.237 -198.487)" xlink:href="#c"/><linearGradient id="o" x1="3.365" x2="12.34" y1="12.982" y2="12.982" gradientUnits="userSpaceOnUse"><stop offset="0" stop-color="#18afff"/><stop offset="1" stop-color="#0062df"/></linearGradient><linearGradient id="p" x1=".979" x2="25.975" y1="8.383" y2="17.892" gradientTransform="rotate(76.451 7.933 11.028)" gradientUnits="userSpaceOnUse"><stop offset="0" stop-color="#18baff"/><stop offset="1" stop-color="#00cfdf"/></linearGradient><linearGradient id="q" x1="12.043" x2="-7.62" y1="6.78" y2="25.823" gradientUnits="userSpaceOnUse"><stop offset="0" stop-color="#fff"/><stop offset="1" stop-color="#6b9fcc"/></linearGradient><linearGradient id="d" x1="-1.326" x2="12.914" y1="12.567" y2="11.552" gradientUnits="userSpaceOnUse"><stop offset="0" stop-color="#9c0600"/><stop offset="1" stop-color="#9c0600" stop-opacity="0"/></linearGradient><radialGradient id="e" cx="15.654" cy="21.737" r="8.846" gradientTransform="translate(0 -14)" gradientUnits="userSpaceOnUse"><stop offset="0" stop-color="#eda83a"/><stop offset="1" stop-color="#ffdc5e"/></radialGradient><clipPath id="r"><circle cx="8" cy="8" r="8" fill="none"/></clipPath><linearGradient id="s" x1="8.295" x2="1.89" y1="10.924" y2="10.234" xlink:href="#d"/><radialGradient id="t" cx="-57.911" cy="-24.889" r="1.226" gradientTransform="matrix(4.3582 3.2271 3.227 -4.3582 332.625 85.883)" xlink:href="#e"/></defs><g clip-path="url(#f)"><path fill="url(#g)" fill-rule="evenodd" d="M16,8A8,8,0,1,1,8,0,8.02352,8.02352,0,0,1,16,8Z"/><path fill="url(#h)" fill-rule="evenodd" d="M16,8A8,8,0,1,1,8,0,8.02352,8.02352,0,0,1,16,8Z" data-name="b"/><path fill="url(#a)" fill-rule="evenodd" d="M16,8A8,8,0,1,1,8,0,8.02352,8.02352,0,0,1,16,8Z" data-name="b"/><path fill="url(#i)" fill-rule="evenodd" d="M16,8A8,8,0,1,1,8,0,8.02352,8.02352,0,0,1,16,8Z" data-name="b"/><path fill="url(#j)" fill-rule="evenodd" d="M16,8A8,8,0,1,1,8,0,8.02352,8.02352,0,0,1,16,8Z" data-name="b"/><path fill="url(#k)" fill-rule="evenodd" d="M16,8A8,8,0,1,1,8,0,8.02352,8.02352,0,0,1,16,8Z" data-name="b"/><path fill="url(#l)" fill-rule="evenodd" d="M9.7,5.9c-.1-.3-3.3-.3-3.4,0s.6.7,1.7.7S9.8,6.2,9.7,5.9Z"/><path fill="url(#b)" fill-rule="evenodd" d="M6,4.1c0,.7-.4.9-1,1s-1.1-.2-1.1-1c0-.6.3-1.4,1.1-1.4C5.7,2.7,6,3.5,6,4.1Z"/><path fill="#4e506a" fill-rule="evenodd" d="M4.9,3.1a.34826.34826,0,0,1-.1.5c-.1.1-.3.2-.4,0a.45417.45417,0,0,1,0-.5.44637.44637,0,0,1,.5,0Z"/><path fill="url(#m)" fill-rule="evenodd" d="M10,4.1c0,.7.4.9,1.1,1,.6.1,1.1-.2,1.1-1,0-.6-.3-1.4-1.1-1.4S10,3.5,10,4.1Z"/><path fill="#4e506a" fill-rule="evenodd" d="M11,3.1c.1.1,0,.3-.1.5a.30417.30417,0,0,1-.4,0c-.1-.1,0-.3.1-.5C10.8,2.9,10.9,2.9,11,3.1Z"/><path fill="url(#c)" fill-rule="evenodd" d="M3.4,2.1c-.2.2,0,.5.3.4A5.85669,5.85669,0,0,1,6.5,2c.3,0,.4,0,.3-.4,0-.3-.4-.5-1.2-.4A3.78644,3.78644,0,0,0,3.4,2.1Z"/><path fill="url(#n)" fill-rule="evenodd" d="M10.4,1.2c-.8-.1-1.2.1-1.2.4-.1.4,0,.4.3.4a5.39694,5.39694,0,0,1,2.8.5c.4.2.5-.2.3-.4A3.78644,3.78644,0,0,0,10.4,1.2Z"/><path fill="url(#o)" d="M3.52683,9.9663c-.44124,1.831-.17326,5.02229,3.3263,5.86561s4.996-1.70413,5.487-3.74179Z" data-name="Layer 2"/><ellipse cx="7.933" cy="11.028" fill="url(#p)" data-name="Layer 3" rx="2.518" ry="4.533" transform="rotate(-76.451 7.933 11.028)"/><path fill="#fff" d="M11.95089,11.85013l.0075-.02823a1.28939,1.28939,0,0,0,.02989-.17908c.24143-1.7835-1.46815-3.81148-3.18472-4.22514C7.07584,7.00134,4.629,7.96414,4.03473,9.75254a1.28707,1.28707,0,0,0-.04585.14887l-.006.02785-.00922.03544.00166.00083c-.2268,1.20768,1.30257,2.58862,3.46493,3.1097,2.07965.50116,4.00017.0275,4.45383-1.05778a.58579.58579,0,0,0,.0491-.13227Z" data-name="Layer 4"/><path fill="url(#q)" d="M8.49832,9.91274a.42733.42733,0,0,1,.05912.013.74941.74941,0,0,1,.13375.05279.85456.85456,0,0,1,.15573.10249.96051.96051,0,0,1,.143.14709.97569.97569,0,0,1,.10974.17488.89262.89262,0,0,1,.06466.1785c.00683.02833.012.05518.01557.07985s.0057.047.00663.06606c.00135.01871.00047.035.00073.04547l-.00075.01692a.28148.28148,0,0,1-.302.25209l-.01677-.0023c-.01022-.0021-.02643-.00416-.04461-.00884-.01858-.00432-.04009-.01046-.0638-.01831s-.04913-.01781-.07579-.02959a.89319.89319,0,0,1-.16407-.09551.977.977,0,0,1-.15246-.13923.96033.96033,0,0,1-.11914-.167.85537.85537,0,0,1-.073-.17153.75252.75252,0,0,1-.028-.141.42512.42512,0,0,1-.00224-.0605.316.316,0,0,1,.33375-.297ZM6.09226,9.82956A.31593.31593,0,0,0,5.943,9.40845a.42727.42727,0,0,0-.05687-.02073.75134.75134,0,0,0-.14119-.02722.85431.85431,0,0,0-.18641.00292.95948.95948,0,0,0-.19963.04738.97631.97631,0,0,0-.18644.08869.893.893,0,0,0-.15033.11594c-.021.02026-.03974.04011-.056.059s-.03.0366-.041.05219c-.01117.01506-.0192.02932-.025.038l-.00846.01467a.28149.28149,0,0,0,.1196.37478l.01539.00706c.00975.0037.02455.01067.04238.01647.018.00632.03947.01269.06368.01877s.051.01132.07983.0157a.89184.89184,0,0,0,.1897.00742.97543.97543,0,0,0,.20335-.0357.96043.96043,0,0,0,.19017-.077.85443.85443,0,0,0,.15362-.1056.75026.75026,0,0,0,.09933-.104A.42707.42707,0,0,0,6.083,9.84736Zm1.69716,2.47435a.21948.21948,0,0,0,.0566-.3052l-.00693-.0089c-.00466-.00517-.01127-.01384-.02013-.02272a.50876.50876,0,0,0-.07541-.06388.58139.58139,0,0,0-.11262-.06122.66125.66125,0,0,0-.13556-.039.67076.67076,0,0,0-.1416-.00978.633.633,0,0,0-.06739.00625c-.02163.00307-.04249.00778-.06178.01247a.55058.55058,0,0,0-.09564.03388c-.01179.00525-.02139.01108-.02779.01432l-.01.00594a.19355.19355,0,0,0-.05484.26486l.00684.00942c.00459.00551.01108.01468.01982.02418a.54927.54927,0,0,0,.07433.06907c.01586.012.03312.02457.05176.036a.6284.6284,0,0,0,.05936.03249.67166.67166,0,0,0,.13385.04724.66138.66138,0,0,0,.1399.018.6047.6047,0,0,0,.0666-.00244.59489.59489,0,0,0,.06109-.009.50907.50907,0,0,0,.09457-.02871c.01166-.00462.02116-.00995.0275-.01285l.0099-.00542Zm.57619-3.37107a.2195.2195,0,0,0,.30988-.018l.007-.00887c.0039-.00577.01076-.01425.01724-.025a.51035.51035,0,0,0,.044-.08849.58166.58166,0,0,0,.03252-.124.66154.66154,0,0,0,.00547-.141.67059.67059,0,0,0-.02435-.13985.63086.63086,0,0,0-.02218-.06394c-.00814-.02028-.01769-.03939-.02687-.057A.55.55,0,0,0,8.65256,8.182c-.00792-.01019-.01587-.01813-.02054-.02357L8.62387,8.1501a.19355.19355,0,0,0-.27029.01L8.34606,8.169c-.00425.00578-.0116.01428-.01873.025a.55077.55077,0,0,0-.0493.08868c-.00785.01825-.016.038-.02256.05886a.629.629,0,0,0-.01735.06541.67015.67015,0,0,0-.01388.14127.66076.66076,0,0,0,.01592.14017.611.611,0,0,0,.01828.06408.60324.60324,0,0,0,.02338.05715.50963.50963,0,0,0,.05048.085c.00728.01022.01472.01817.01905.02362l.00761.00833Zm2.42116,1.05723a.21949.21949,0,0,0,.0566-.30521l-.00694-.0089c-.00465-.00516-.01127-.01384-.02012-.02271a.50816.50816,0,0,0-.07541-.06388.58139.58139,0,0,0-.11262-.06122.66062.66062,0,0,0-.13556-.039.67014.67014,0,0,0-.14161-.00978.63309.63309,0,0,0-.06738.00625c-.02164.00306-.04249.00778-.06179.01247a.54908.54908,0,0,0-.09563.03388c-.01179.00525-.02139.01108-.02779.01431l-.01.00594a.19355.19355,0,0,0-.05484.26487l.00683.00942c.00459.0055.01109.01467.01983.02417a.548.548,0,0,0,.07433.06907c.01585.012.03312.02458.05176.036a.633.633,0,0,0,.05936.03249.67078.67078,0,0,0,.13385.04723.66138.66138,0,0,0,.1399.018.5816.5816,0,0,0,.12769-.01147.50907.50907,0,0,0,.09457-.02871c.01166-.00463.02116-.01.0275-.01285l.0099-.00542ZM7.25764,8.49161a.21949.21949,0,0,0,.0566-.3052l-.00694-.0089c-.00465-.00517-.01127-.01384-.02012-.02272a.50981.50981,0,0,0-.07541-.06388.61121.61121,0,0,0-.05247-.03255.60245.60245,0,0,0-.06015-.02867.66062.66062,0,0,0-.13556-.039A.67019.67019,0,0,0,6.822,7.98091a.63309.63309,0,0,0-.06738.00625c-.02164.00307-.04249.00778-.06179.01247a.55044.55044,0,0,0-.09563.03388c-.01179.00525-.0214.01108-.0278.01432l-.01.00594a.19354.19354,0,0,0-.05484.26486l.00683.00942c.00459.00551.01109.01467.01983.02418a.54915.54915,0,0,0,.07432.06907c.01586.012.03313.02457.05176.036a.63193.63193,0,0,0,.05936.03249A.67175.67175,0,0,0,6.8505,8.537a.66054.66054,0,0,0,.1399.018.58158.58158,0,0,0,.12768-.01147.5092.5092,0,0,0,.09458-.02871c.01165-.00462.02116-.00995.02749-.01285l.0099-.00542ZM7.13831,10.664a.2195.2195,0,0,0-.18432-.24977l-.01123-.001c-.007-.00012-.01782-.00122-.03034-.00079a.50935.50935,0,0,0-.09816.01145.60381.60381,0,0,0-.05962.01612.61143.61143,0,0,0-.062.02436.66086.66086,0,0,0-.12106.07242.67089.67089,0,0,0-.10384.09677.63174.63174,0,0,0-.04145.05349c-.01253.01791-.02332.03634-.03307.05365a.55115.55115,0,0,0-.04056.093c-.00421.01218-.00651.0232-.00853.03008l-.00249.01136a.19353.19353,0,0,0,.15606.22092l.01155.00143c.00716.00042.0183.00192.0312.002a.54976.54976,0,0,0,.10121-.00712c.01958-.00341.04056-.00742.06163-.01326a.63527.63527,0,0,0,.06428-.02117.6702.6702,0,0,0,.12592-.06554.66064.66064,0,0,0,.1087-.0899.58126.58126,0,0,0,.0788-.1011.51206.51206,0,0,0,.04362-.08868c.00459-.01167.00718-.02226.00939-.02886l.0028-.01094ZM11.07,11.69568a.21951.21951,0,0,0-.15448-.26924l-.01106-.00229c-.00689-.00091-.01754-.00325-.03-.00426a.50833.50833,0,0,0-.09883.00013.5821.5821,0,0,0-.12547.02628.66.66,0,0,0-.12856.05807.66968.66968,0,0,0-.11425.08424.62785.62785,0,0,0-.0473.04839c-.0145.01636-.02734.03343-.039.04951a.54927.54927,0,0,0-.051.08776c-.00557.01164-.00913.02229-.01191.02891l-.00379.011a.19351.19351,0,0,0,.12971.23734l.0113.00276c.00706.00123.01795.004.03077.00558a.55021.55021,0,0,0,.10136.0045c.01985-.00113.04115-.00272.06274-.0061a.63184.63184,0,0,0,.06627-.01367.6717.6717,0,0,0,.1326-.05066.65975.65975,0,0,0,.11829-.07685.582.582,0,0,0,.08987-.09141.51031.51031,0,0,0,.05349-.0831c.00589-.01107.00969-.0213.01263-.02759l.004-.01055Zm-.88218-3.16117a.21949.21949,0,0,0-.15447-.26923L10.02231,8.263c-.00689-.00092-.01755-.00326-.03-.00427a.50843.50843,0,0,0-.09883.00014.58218.58218,0,0,0-.12546.02628.66.66,0,0,0-.12856.05806.66982.66982,0,0,0-.11425.08424.62975.62975,0,0,0-.0473.0484c-.01452.01635-.02734.03343-.039.04951a.54944.54944,0,0,0-.05094.08776c-.00557.01163-.00913.02229-.01191.02891l-.00379.011a.19353.19353,0,0,0,.1297.23735l.0113.00276c.00706.00124.01795.004.03077.00558a.54851.54851,0,0,0,.10137.0045c.01984-.00113.04114-.00272.06274-.00609a.633.633,0,0,0,.06627-.01368.67218.67218,0,0,0,.1326-.05066.66047.66047,0,0,0,.11829-.07685.582.582,0,0,0,.08987-.09141.51031.51031,0,0,0,.05349-.0831c.00588-.01107.00968-.0213.01262-.02759l.004-.01054Z" data-name="Layer 5"/><path fill="url(#d)" d="M15.13789,8.26713c-.11608-.09583-.16921-.062-.3612-.1548-.30835-.14911-.35542.67451-.47669.68767-.17312.01879-.24414-.60673-.32245-.352a3.22671,3.22671,0,0,1-1.0043,1.44331,3.80684,3.80684,0,0,1-1.93207.88144,13.13383,13.13383,0,0,1-1.76673-.09346.463.463,0,0,0-.28693.11919.39881.39881,0,0,0-.10079.18265c-.06223.22482.18157.4657.36713.649A1.88447,1.88447,0,0,0,9.6,11.9c.14121.05492.27912.12324.27176.18346-.02033.16628-1.17117-.12915-1.72285.44688a1.295,1.295,0,0,0-.28284,1.01094,1.85351,1.85351,0,0,0,1.1253,1.31607,2.754,2.754,0,0,0,1.51742.19512A7.27361,7.27361,0,0,0,13.637,13.6617c.79466-.59482,1.192-2.89222,1.45734-3.46719.33929-.73521.36328.33148.32731-.09557a3.40011,3.40011,0,0,1-.05159-.92881,1.18506,1.18506,0,0,0,0-.4902A.74547.74547,0,0,0,15.13789,8.26713Z"/><path fill="url(#e)" d="M14.3,7.8c.3-.6.8-.4,1.1-.3a.91613.91613,0,0,1,.7,1,5.70617,5.70617,0,0,1-1.5,4.3c-2.3,2.6-6.2,2.2-6.6.6C7.7,12.2,9.1,12,9.6,12v-.1c-.2-.1-.3-.2-.5-.3-.4-.3-.3-.9.2-.8a6.80386,6.80386,0,0,0,2,.2c1.9-.2,2.2-1.7,3-3.2Z"/><g clip-path="url(#r)"><path fill="url(#s)" d="M6.31933,10.25326a.82184.82184,0,0,0-.458-.17463c-.72793-.086-1.48341-.12807-1.76-.14228a1.24221,1.24221,0,0,0,.99713-.28009c.04012-.03877.42538-.42025.27383-.72006a.56611.56611,0,0,0-.42793-.24331c-.05378.01316-.133.03111-.22957.04756A3.71631,3.71631,0,0,1,2.8877,8.56517a4.77,4.77,0,0,1-.93585-.46256A3.27059,3.27059,0,0,0,1.3,7.7a1.17553,1.17553,0,0,0-.80158-.10293C.002,7.81606.08161,8.953.097,9.17277a4.17965,4.17965,0,0,0,1.71086,3.16648,3.55484,3.55484,0,0,0,2.93911.49967c1.00354-.33042,1.81425-1.16375,1.76377-1.85945C6.50405,10.88719,6.56845,10.46525,6.31933,10.25326Z"/><path fill="url(#t)" fill-rule="evenodd" d="M1.3,7.7c-.5-.5-1.4-.8-1.5.4a4.23772,4.23772,0,0,0,1.4,3.4c2.8,2.2,5.3,1,5.4-.6.1-1.2-1.4-1.1-1.8-1.1V9.7c.1-.1.3-.2.4-.3.4-.3.2-.8-.3-.7a4.23105,4.23105,0,0,1-2.1.1C2,8.5,1.9,8.2,1.3,7.7Z"/></g></g></svg>