<svg xmlns="http://www.w3.org/2000/svg" xmlns:xlink="http://www.w3.org/1999/xlink" data-name="Layer 1" viewBox="0 0 16 16"><defs><clipPath id="f"><rect width="16" height="16" fill="none"/></clipPath><linearGradient id="g" x1="-71.688" x2="-71.688" y1="-123.388" y2="-122.512" gradientTransform="matrix(16 0 0 -16 1155 -1959)" gradientUnits="userSpaceOnUse"><stop offset="0" stop-color="#f28a2d"/><stop offset="1" stop-color="#fde86f"/></linearGradient><radialGradient id="h" cx="-71.688" cy="-122.938" r=".5" gradientTransform="matrix(16 0 0 -16 1155 -1959)" gradientUnits="userSpaceOnUse"><stop offset="0" stop-color="#f28a2d" stop-opacity="0"/><stop offset="1" stop-color="#f08423" stop-opacity=".34"/></radialGradient><radialGradient id="a" cx="-68.64" cy="-122.108" r=".101" gradientTransform="matrix(14.5998 6.5456 5.063 -11.2928 1622.087 -921.335)" gradientUnits="userSpaceOnUse"><stop offset="0" stop-color="#f28a2d" stop-opacity=".5"/><stop offset="1" stop-color="#f28a2d" stop-opacity="0"/></radialGradient><radialGradient id="i" cx="-78.32" cy="-142.298" r=".283" gradientTransform="matrix(12.5663 -9.904 -3.6032 -4.5717 483.34 -1414.45)" xlink:href="#a"/><radialGradient id="j" cx="-73.644" cy="-164.162" r=".107" gradientTransform="matrix(15.7394 -2.8762 -.572 -3.1299 1070.31 -723.599)" gradientUnits="userSpaceOnUse"><stop offset="0" stop-color="#d45f00" stop-opacity=".15"/><stop offset="1" stop-color="#f28a2d" stop-opacity="0"/></radialGradient><radialGradient id="k" cx="-69.717" cy="-154.793" r=".106" gradientTransform="matrix(15.6768 3.1995 .6363 -3.1176 1202.32 -257.375)" gradientUnits="userSpaceOnUse"><stop offset="0" stop-color="#d45f00" stop-opacity=".15"/><stop offset="1" stop-color="#d45f00" stop-opacity="0"/></radialGradient><linearGradient id="l" x1="-53.876" x2="-53.876" y1="-273.683" y2="-275.203" gradientTransform="matrix(3.4035 0 0 -.9374 191.369 -251.242)" gradientUnits="userSpaceOnUse"><stop offset="0" stop-color="#482314"/><stop offset="1" stop-color="#9a4111"/></linearGradient><radialGradient id="b" cx="-147.298" cy="-149.774" r=".872" gradientTransform="matrix(0 -2.1326 -2.1327 0 -314.43 -309.859)" gradientUnits="userSpaceOnUse"><stop offset="0" stop-color="#3b446b"/><stop offset=".688" stop-color="#202340"/></radialGradient><radialGradient id="m" cx="-147.313" cy="-149.774" r=".872" gradientTransform="matrix(0 -2.1326 -2.1327 0 -308.416 -309.89)" xlink:href="#b"/><radialGradient id="c" cx="-198.097" cy="-119.285" r=".298" gradientTransform="matrix(-.339 -1.3177 -6.1081 1.5713 -790.76 -71.888)" gradientUnits="userSpaceOnUse"><stop offset="0" stop-color="#e38200"/><stop offset="1" stop-color="#cd6700"/></radialGradient><radialGradient id="n" cx="-174.757" cy="-126.205" r=".314" gradientTransform="matrix(.2577 -1.3359 -7.9278 -1.5293 -944.554 -424.93)" xlink:href="#c"/><linearGradient id="o" x1="4.119" x2="9.825" y1="18.867" y2="6.325" gradientUnits="userSpaceOnUse"><stop offset="0" stop-color="#e04300"/><stop offset="1" stop-color="#ffa320"/></linearGradient><linearGradient id="d" x1="-1.326" x2="12.914" y1="12.567" y2="11.552" gradientUnits="userSpaceOnUse"><stop offset="0" stop-color="#9c0600"/><stop offset="1" stop-color="#9c0600" stop-opacity="0"/></linearGradient><radialGradient id="e" cx="15.654" cy="21.737" r="8.846" gradientTransform="translate(0 -14)" gradientUnits="userSpaceOnUse"><stop offset="0" stop-color="#eda83a"/><stop offset="1" stop-color="#ffdc5e"/></radialGradient><clipPath id="p"><circle cx="8" cy="8" r="8" fill="none"/></clipPath><linearGradient id="q" x1="8.395" x2="1.913" y1="10.935" y2="10.236" xlink:href="#d"/><radialGradient id="r" cx="-48.997" cy="-126.969" r="1.226" gradientTransform="matrix(4.3582 3.2271 3.227 -4.3582 623.186 -387.77)" xlink:href="#e"/></defs><g clip-path="url(#f)"><path fill="url(#g)" fill-rule="evenodd" d="M16,8A8,8,0,1,1,8,0,8.02352,8.02352,0,0,1,16,8Z"/><path fill="url(#h)" fill-rule="evenodd" d="M16,8A8,8,0,1,1,8,0,8.02352,8.02352,0,0,1,16,8Z" data-name="b"/><path fill="url(#a)" fill-rule="evenodd" d="M16,8A8,8,0,1,1,8,0,8.02352,8.02352,0,0,1,16,8Z" data-name="b"/><path fill="url(#i)" fill-rule="evenodd" d="M16,8A8,8,0,1,1,8,0,8.02352,8.02352,0,0,1,16,8Z" data-name="b"/><path fill="url(#j)" fill-rule="evenodd" d="M16,8A8,8,0,1,1,8,0,8.02352,8.02352,0,0,1,16,8Z" data-name="b"/><path fill="url(#k)" fill-rule="evenodd" d="M16,8A8,8,0,1,1,8,0,8.02352,8.02352,0,0,1,16,8Z" data-name="b"/><path fill="url(#l)" fill-rule="evenodd" d="M9.7,5.9c-.1-.3-3.3-.3-3.4,0s.6.7,1.7.7S9.8,6.2,9.7,5.9Z"/><path fill="url(#b)" fill-rule="evenodd" d="M6,4.1c0,.7-.4.9-1,1s-1.1-.2-1.1-1c0-.6.3-1.4,1.1-1.4C5.7,2.7,6,3.5,6,4.1Z"/><path fill="#4e506a" fill-rule="evenodd" d="M4.9,3.1a.34826.34826,0,0,1-.1.5c-.1.1-.3.2-.4,0a.45417.45417,0,0,1,0-.5.44637.44637,0,0,1,.5,0Z"/><path fill="url(#m)" fill-rule="evenodd" d="M10,4.1c0,.7.4.9,1.1,1,.6.1,1.1-.2,1.1-1,0-.6-.3-1.4-1.1-1.4S10,3.5,10,4.1Z"/><path fill="#4e506a" fill-rule="evenodd" d="M11,3.1c.1.1,0,.3-.1.5a.30417.30417,0,0,1-.4,0c-.1-.1,0-.3.1-.5C10.8,2.9,10.9,2.9,11,3.1Z"/><path fill="url(#c)" fill-rule="evenodd" d="M3.4,2.1c-.2.2,0,.5.3.4A5.85669,5.85669,0,0,1,6.5,2c.3,0,.4,0,.3-.4,0-.3-.4-.5-1.2-.4A3.78644,3.78644,0,0,0,3.4,2.1Z"/><path fill="url(#n)" fill-rule="evenodd" d="M10.4,1.2c-.8-.1-1.2.1-1.2.4-.1.4,0,.4.3.4a5.39694,5.39694,0,0,1,2.8.5c.4.2.5-.2.3-.4A3.78644,3.78644,0,0,0,10.4,1.2Z"/><path fill="url(#o)" d="M11.47945,12.77833A4.24864,4.24864,0,1,1,8.38457,7.62718,4.249,4.249,0,0,1,11.47945,12.77833Z"/><path fill="#fff" d="M9.23087,11.14469c.0846-.56553-.346-.86955-.93476-1.07236l.191-.76608L8.02078,9.19l-.18594.7459c-.12259-.03055-.2485-.05937-.37361-.08793l.18727-.75081L7.18245,8.981l-.19113.76582c-.10147-.02311-.20108-.046-.29777-.07l.00053-.00239L6.051,9.51384l-.12405.49806s.346.07929.33869.08421a.24813.24813,0,0,1,.21728.27121l-.21755.87273a.38592.38592,0,0,1,.04848.01554l-.04928-.01222-.30494,1.22257a.16973.16973,0,0,1-.2137.11077c.00464.00678-.339-.0846-.339-.0846l-.2315.53379.60684.15128c.11289.02829.22353.0579.33244.08579l-.193.77485.46579.11622.19112-.76662c.12724.03454.25076.06641.37162.09643l-.19046.763.46632.11621.193-.77339c.79517.15048,1.39311.08979,1.6448-.62941a.81818.81818,0,0,0-.42847-1.13093A.74368.74368,0,0,0,9.23087,11.14469Zm-1.06545,1.494c-.14411.57908-1.11911.266-1.43521.18754l.25607-1.02654C7.30238,11.87863,8.316,12.03482,8.16542,12.63874Zm.14424-1.50242c-.13149.52675-.943.25913-1.20624.19352l.23216-.93105C7.59882,10.4644,8.44659,10.58686,8.30966,11.13632Z"/><path fill="url(#d)" d="M15.13789,8.26713c-.11608-.09583-.16921-.062-.3612-.1548-.30835-.14911-.35542.67451-.47669.68767-.17312.01879-.24414-.60673-.32245-.352a3.22671,3.22671,0,0,1-1.0043,1.44331,3.80684,3.80684,0,0,1-1.93207.88144,13.13383,13.13383,0,0,1-1.76673-.09346.463.463,0,0,0-.28693.11919.39881.39881,0,0,0-.10079.18265c-.06223.22482.18157.4657.36713.649A1.88447,1.88447,0,0,0,9.6,11.9c.14121.05492.27912.12324.27176.18346-.02033.16628-1.17117-.12915-1.72285.44688a1.295,1.295,0,0,0-.28284,1.01094,1.85351,1.85351,0,0,0,1.1253,1.31607,2.754,2.754,0,0,0,1.51742.19512A7.27361,7.27361,0,0,0,13.637,13.6617c.79466-.59482,1.192-2.89222,1.45734-3.46719.33929-.73521.36328.33148.32731-.09557a3.40011,3.40011,0,0,1-.05159-.92881,1.18506,1.18506,0,0,0,0-.4902A.74547.74547,0,0,0,15.13789,8.26713Z"/><path fill="url(#e)" d="M14.3,7.8c.3-.6.8-.4,1.1-.3a.91613.91613,0,0,1,.7,1,5.70617,5.70617,0,0,1-1.5,4.3c-2.3,2.6-6.2,2.2-6.6.6C7.7,12.2,9.1,12,9.6,12v-.1c-.2-.1-.3-.2-.5-.3-.4-.3-.3-.9.2-.8a6.80386,6.80386,0,0,0,2,.2c1.9-.2,2.2-1.7,3-3.2Z"/><g clip-path="url(#p)"><path fill="url(#q)" d="M6.31933,10.25326a.82184.82184,0,0,0-.458-.17463c-.72793-.086-1.48341-.12807-1.76-.14228a1.24221,1.24221,0,0,0,.99713-.28009c.04012-.03877.42538-.42025.27383-.72006a.56611.56611,0,0,0-.42793-.24331c-.05378.01316-.133.03111-.22957.04756A3.71631,3.71631,0,0,1,2.8877,8.56517a4.77,4.77,0,0,1-.93585-.46256A3.27059,3.27059,0,0,0,1.3,7.7a1.17553,1.17553,0,0,0-.80158-.10293C.002,7.81606.08161,8.953.097,9.17277a4.17965,4.17965,0,0,0,1.71086,3.16648,3.55484,3.55484,0,0,0,2.93911.49967C5.75052,12.5085,6.65048,11.59569,6.6,10.9A.93851.93851,0,0,0,6.31933,10.25326Z"/><path fill="url(#r)" fill-rule="evenodd" d="M1.3,7.7c-.5-.5-1.4-.8-1.5.4a4.23772,4.23772,0,0,0,1.4,3.4c2.8,2.2,5.3,1,5.4-.6.1-1.2-1.4-1.1-1.8-1.1V9.7c.1-.1.3-.2.4-.3.4-.3.2-.8-.3-.7a4.23105,4.23105,0,0,1-2.1.1C2,8.5,1.9,8.2,1.3,7.7Z"/></g></g></svg>